<svg xmlns="http://www.w3.org/2000/svg" width="252" height="90"><defs><clipPath id="a"><path d="M0 0h252v90H0z"/></clipPath></defs><g clip-path="url(#a)"><path d="M29.756 86.84l-.01.002a23.218 23.218 0 01-6.22.789l-.006.002-.007.002h-.02A23.333 23.333 0 01.377 64.377a.085.085 0 01-.003-.01.092.092 0 00-.002-.009c0-.17 0-.338.004-.509l.002-18.906a3.986 3.986 0 013.989-3.99H23.29l.301-.004A23.33 23.33 0 0143.96 52.664l.003.01.002.008.002.008A23.35 23.35 0 0129.77 86.835l-.024.006zm-8.222-17.353a11.156 11.156 0 012.039-.348c3.304-.251 6.142 1.14 8.424 2.257 1.807.885 3.367 1.65 4.599 1.32a2.128 2.128 0 00.437-.172c1.286-.675 2.785-3.008 3.82-5.942.837-2.371 1.457-5.528.685-7.274-.68-1.54-2.93-2.763-6.51-3.542a47.976 47.976 0 00-12.196-.769 48.226 48.226 0 00-9.776 1.331c-3.453.926-5.793 2.34-7.166 4.325-.57.826-.998 2.477.2 5.659 1.481 3.93 4.52 7.744 5.97 8.108a1.736 1.736 0 00.89-.025 9.195 9.195 0 002.699-1.669c.242-.185.492-.376.752-.57a15.19 15.19 0 015.133-2.69z" fill="#2f3937"/><g fill="#2f3937"><path d="M16.59 60.439a4.322 4.322 0 014.166 2.987 1.568 1.568 0 01-.149 1.292 1.188 1.188 0 01-1.8-.6 2.246 2.246 0 00-3.377-1.281c-.438.28-.7.828-1.072 1.225a2.322 2.322 0 01-1.337.932c-.694.1-1.048-.42-.582-1.689a4.45 4.45 0 014.151-2.866zM34.913 64.968a1.9 1.9 0 01-.976-1.006 2.419 2.419 0 00-2.149-1.46 2.132 2.132 0 00-2.223 1.48 1.071 1.071 0 11-2.108-.259 4.057 4.057 0 014.118-3.282 4.486 4.486 0 014.455 3.282c.185.809-.578 1.455-1.117 1.245z"/></g><path d="M95.258 33.43c-3.31.4-35.405 1.587-51.174 2.23-4.522 7.338-16.939 13.837-16.939 13.837 1.685-1.967 4.294-9.591 5.523-13.386-4.024.152-7.1.263-8.557.311-7.13.24-6.907-4.08-6.907-4.08s.125-17.211-.3-23.675 5.051-5.68 5.051-5.68 61.47-.556 68-1.252 6.753 4.354 6.753 4.354L99.9 26.87s.625 5.92-4.642 6.56z" fill="#fafaf8"/><path d="M99.612 21.635q-.9-5.765-1.807-11.531a35.718 35.718 0 00-.869-5.141C95.919 1.71 92.221 1.353 88.93 1.6c-3.116.233-6.26.263-9.384.335-9.7.222-31.509.772-41.206.854q-7.9.067-15.8.107a11.63 11.63 0 00-3.435.386c-3.552 1.136-3.245 4.808-3.123 7.47.324 7.084.253 14.189.209 21.278-.038 6.246 10.526 4.663 15.42 4.368-1.352 4.16-2.53 9.15-5.375 12.706-.471.589 1.057.373 1.3.249a70.407 70.407 0 008.078-4.979 47.242 47.242 0 006.09-5.058 26.43 26.43 0 002.373-2.718c.923-1.2 2.964-.811 4.509-.874 11.214-.456 34.8-.9 45.954-2.121a1.764 1.764 0 00.233-.024 1.272 1.272 0 00.193-.038c6.822-1.271 5.349-7.423 4.646-11.906zm-4.628 11.117c-11.225 1.245-34.895 1.684-46.187 2.145a28.2 28.2 0 00-4.882.226c-.776.181-1.012.887-1.4 1.43a31.751 31.751 0 01-6.538 6.3 61.757 61.757 0 01-7.1 4.741c2.217-3.555 3.272-7.994 4.516-11.742.08-.24-.317-.343-.513-.336-4.054.15-13.9 2.052-14.983-2.97-.465-2.167-.026-4.7-.028-6.886 0-4.622-.027-9.245-.172-13.865-.1-3.153-.856-8.036 3.816-8.058 15.579-.072 43.278-.62 58.851-1q2.948-.071 5.893-.186c2.143-.088 4.58-.552 6.589.178 2.912 1.058 2.82 4.715 3.176 6.987l2.176 13.887c.471 3.021 1.692 8.322-3.214 9.15z" fill="#2f3937" stroke="#2f3937"/><path d="M23.932 25.205q-.008-.216.334-2.105.133-.726.244-1.303.149-.736.284-1.39.107-.503.33-1.48l.721-3.365.313-1.523a.564.564 0 01.258-.56 2.036 2.036 0 01.886-.177 2.3 2.3 0 011.11.268q.575.288.58.453a.769.769 0 01-.099.245l-.138.312-.262 1.155-.173.778q-.28 1.252-.647 3.545l-.137.844-.214 1.245q-.076.418-.24 1.188-.21 1.087-.43 2a.573.573 0 01-.235.381 1.87 1.87 0 01-.764.127l-.254.01a1.977 1.977 0 01-1.008-.219q-.452-.238-.46-.43zm7.703-12.254a1.888 1.888 0 01.812.2q.473.211.482.469a9.569 9.569 0 01-.54 1.406l-.94 2.334a.99.99 0 01-.236.394.5.5 0 01-.327.132 1.7 1.7 0 01-.626-.207q-.452-.212-.464-.328a5.5 5.5 0 01.358-1.22q.365-1.014.53-1.684l.135-.405.13-.337a2.082 2.082 0 01.223-.631.558.558 0 01.407-.122zm2.83 12.517l-.216.016-.157.015a2.524 2.524 0 01-1.124-.31l-.447-.201q-.051-.023-.093-.15a1.026 1.026 0 01-.048-.284 6.946 6.946 0 01.135-1.127q.07-.384.2-1.045t.304-1.439q.32-1.539.384-1.824.165-.762.402-1.815.065-.303.418-1.816l.144-.637a1.563 1.563 0 01.386-.84 1.043 1.043 0 01.729-.295 4.318 4.318 0 01.866.07q.503.082 1.507.358a.264.264 0 01.128.079.548.548 0 01.048.181q.003.075-.02.35t-.075.738q-.054.463-.097.913a6.378 6.378 0 00-.03.815 7.182 7.182 0 01-.029.823q-.04.492-.064.758l-.063.808.027.057a.1.1 0 00.076.022 11.957 11.957 0 00.675-1.843q.307-.94.62-1.773t.649-1.634l.357-.943q.204-.58.594-.594a4.047 4.047 0 011.143.168q.378.095.671.197a4.96 4.96 0 01.59.25.645.645 0 01.232.207.65.65 0 01.095.346l-.073.285a15.5 15.5 0 00-.447 2.076q-.176 1.144-.444 2.534l-.189 1.007q-.12.586-.22 1.062-.02.11-.26 1.131l-.416 1.852-.23 1.039q-.021.1-.195.155a1.913 1.913 0 01-.498.068 3.264 3.264 0 01-1.116-.152q-.537-.173-.544-.364l.256-1.03q.27-1.031.497-2.069t.396-1.758q.175-.72.405-1.615l.407-1.61a.143.143 0 00-.037-.09l-.051-.04q-.05 0-1.013 2.51t-2.175 5.134a.394.394 0 01-.091-.005 1.372 1.372 0 01-.151-.053.924.924 0 00-.26-.057l-.066.01-.066.01a.813.813 0 01-.294-.073l-.27-.098a.24.24 0 01-.168-.085.744.744 0 01-.033-.231l-.019-.522-.034-.754-.04-.9q-.036-1.045.04-2.568t.068-1.754a.22.22 0 00-.03-.124.19.19 0 00-.117-.046 10.828 10.828 0 00-.27 1.787q-.1.925-.217 1.743t-.28 1.666l-.225 1.17a13.806 13.806 0 00-.284 1.846l.003.092zm12.712-3.916a9.429 9.429 0 01.828-.535 1.148 1.148 0 01.456-.163q.34-.012.422.194l.055.13a2.242 2.242 0 00.6.88 1.151 1.151 0 00.803.293.825.825 0 00.58-.295.954.954 0 00.233-.672q-.013-.365-.968-1.328l-.49-.49a3.78 3.78 0 01-.717-1.021 3.54 3.54 0 01-.194-.55 2.6 2.6 0 01-.077-.553 4.393 4.393 0 01.512-2.22 6.58 6.58 0 011.676-1.996 4.73 4.73 0 01.87-.558 1.973 1.973 0 01.705-.245 2.06 2.06 0 011.013.347l.372.203.279.131a1.942 1.942 0 011.125 1.88 3.978 3.978 0 01-.278 1.766q-.316.705-.823.722a2.729 2.729 0 01-.432-.018q-.21-.025-.334-.046-.234-.042-.419-.085a1.46 1.46 0 01-.234-.063.41.41 0 01-.222-.159.969.969 0 01-.071-.397l-.009-.232q-.009-.266 0-.382t.04-.367l.057-.517a.115.115 0 00-.05-.099.352.352 0 00-.146-.045q-.2.007-.594.57a2.391 2.391 0 00-.272.557 1.639 1.639 0 00-.08.567q.023.672 1.145 1.661l.369.328a4.282 4.282 0 01.896 1.048 2.221 2.221 0 01.297 1.02 3.861 3.861 0 01-1.075 2.784 3.586 3.586 0 01-2.6 1.314 3.163 3.163 0 01-2.24-.797 2.753 2.753 0 01-1.023-2.066l.011-.39zm11.168-2q.002.057.081.084a.909.909 0 00.28.019l.256-.009a1.632 1.632 0 00.498-.063q.107-.05.156-.284l.049-.502.046-.583q.056-.542.119-1.113t.144-1.114l.152-1.127-.019-.04-.058-.007a4.949 4.949 0 00-.624 1.642l-.074.252q-.312 1.076-.649 1.918zm-.841 2.578q-.14.005-.404.815-.12.37-.245.719t-.231.626l-.189.555a.478.478 0 01-.459.407l-.273-.002-.39.006a3.259 3.259 0 01-.864-.47l-.076-.046-.093-.063a.321.321 0 01-.183-.25 16.509 16.509 0 011.073-3.294q.54-1.397 1.257-3.1t1.542-3.534q.077-.161.2-.456l.237-.572q.506-1.219 1.158-1.242a3.125 3.125 0 01.524.032q.142.02.28.048a2.333 2.333 0 01.273.074q.378.103.87.202a4.336 4.336 0 01.544.106 1.191 1.191 0 01.468.308.766.766 0 01.166.467l-.162 2.721q-.026.483-.119 1.706t-.133 1.905q-.048 1.024-.018 1.87l-.01 1.206q.03.838-.107.943a2.917 2.917 0 01-.616.332 2 2 0 01-.631.122l-.39.014a1.079 1.079 0 01-.585-.105.6.6 0 01-.183-.494l-.006-.17-.002-.292v-.216l-.054-.33-.062-.598a.129.129 0 00-.029-.09l-.066-.015a16.543 16.543 0 00-1.706.143l-.158.022-.089-.003zm5.824-1.142a9.429 9.429 0 01.829-.535 1.148 1.148 0 01.451-.165q.34-.012.422.194l.055.13a2.242 2.242 0 00.6.88 1.151 1.151 0 00.803.293.825.825 0 00.58-.295.954.954 0 00.233-.672q-.013-.365-.968-1.328l-.49-.49a3.78 3.78 0 01-.717-1.021 3.54 3.54 0 01-.194-.55 2.6 2.6 0 01-.077-.553 4.393 4.393 0 01.512-2.22 6.58 6.58 0 011.682-1.997 4.73 4.73 0 01.87-.558 1.973 1.973 0 01.705-.245 2.06 2.06 0 011.013.347l.372.203.279.131a1.942 1.942 0 011.125 1.882 3.978 3.978 0 01-.278 1.767q-.316.705-.822.722a2.729 2.729 0 01-.433-.018q-.21-.025-.334-.046-.234-.042-.418-.086a1.46 1.46 0 01-.235-.062.41.41 0 01-.221-.159.969.969 0 01-.072-.397l-.008-.232q-.01-.266-.002-.383t.041-.366l.057-.517a.115.115 0 00-.049-.099.352.352 0 00-.147-.045q-.2.007-.594.57a2.391 2.391 0 00-.272.557 1.639 1.639 0 00-.08.567q.023.672 1.146 1.661l.368.328a4.282 4.282 0 01.896 1.048 2.221 2.221 0 01.297 1.028 3.861 3.861 0 01-1.076 2.776 3.586 3.586 0 01-2.6 1.314 3.163 3.163 0 01-2.241-.798 2.753 2.753 0 01-1.023-2.066l.011-.39zm7.54-.263a9.429 9.429 0 01.829-.535 1.148 1.148 0 01.45-.163q.34-.012.422.193l.054.132a2.242 2.242 0 00.6.88 1.151 1.151 0 00.804.291.825.825 0 00.579-.294.954.954 0 00.234-.673q-.013-.364-.968-1.328l-.49-.489a3.78 3.78 0 01-.716-1.024 3.54 3.54 0 01-.193-.55 2.6 2.6 0 01-.078-.554 4.393 4.393 0 01.512-2.219 6.58 6.58 0 011.683-1.998 4.73 4.73 0 01.869-.557 1.973 1.973 0 01.706-.245 2.06 2.06 0 011.012.347l.373.203.278.131a1.942 1.942 0 011.126 1.883 3.978 3.978 0 01-.279 1.767q-.315.704-.822.722a2.729 2.729 0 01-.433-.018q-.209-.026-.334-.046-.233-.042-.418-.086a1.46 1.46 0 01-.234-.063.41.41 0 01-.222-.158.969.969 0 01-.072-.398l-.008-.232q-.01-.266-.001-.382t.04-.367l.058-.517a.115.115 0 00-.05-.098.352.352 0 00-.146-.045q-.2.007-.595.569a2.391 2.391 0 00-.271.558 1.639 1.639 0 00-.08.567q.023.672 1.145 1.661l.369.327a4.282 4.282 0 01.896 1.049 2.221 2.221 0 01.296 1.019 3.861 3.861 0 01-1.075 2.784 3.586 3.586 0 01-2.6 1.315 3.163 3.163 0 01-2.24-.799 2.753 2.753 0 01-1.024-2.065l.012-.39zm10.971 3.023a1.61 1.61 0 01-.568-.105l-.11-.037a1.067 1.067 0 00-.186-.048 1.263 1.263 0 00-.245-.012.865.865 0 01-.403-.061.548.548 0 01-.187-.127l-.036-.074.135-.75.266-1.41q.061-.385.192-.925a3.743 3.743 0 00.126-.665l-.23-.64a9.785 9.785 0 01-.356-1.366q-.072-.405-.142-.862a7.607 7.607 0 01-.085-.882q-.01-.315-.059-.977t-.055-1.024q-.007-.208-.005-.386a3.324 3.324 0 01.032-.402.626.626 0 01.118-.324 1.944 1.944 0 01.621-.396 2.1 2.1 0 01.735-.234q.647-.022.985.839a8.579 8.579 0 01.4 2.652l.007.44.004.34.018.266a.257.257 0 00.018.05.054.054 0 00.026.023 6.165 6.165 0 00.55-1.269 19.5 19.5 0 011.045-2.308l.522-.997q.793-1.548 1.258-1.564a1.631 1.631 0 01.48.058 2.665 2.665 0 01.542.222q.575.295.586.603a5.868 5.868 0 01-.498 1.21q-.504 1.06-1.531 3.006-.693 1.337-1.436 2.641-.766 1.373-.82 1.508l-.292 1.148q-.285 1.163-.564 2.452a.372.372 0 01-.239.294 2.011 2.011 0 01-.619.093zm9.474-11.743a.684.684 0 01-.143.312 2.018 2.018 0 00-.188.34l-.181.554-.3.949q-.067.202-.507 1.604-.075.234-.455 1.47l-.411 1.335-.015.058-.073.277q-.285 1.064-.785 1.082a2.5 2.5 0 01-.83-.108q-.399-.123-.405-.306a14.2 14.2 0 01.206-1.873q.223-1.477.59-3.151.02-.142.031-.188t.07-.28q.706-3.315 1.503-3.342a2.1 2.1 0 011.175.482q.708.502.718.785zm-4.138 11.607a1.2 1.2 0 01-.885-.339 1.129 1.129 0 01-.402-.804 2.062 2.062 0 01.546-1.394 1.628 1.628 0 011.134-.708 1.733 1.733 0 011.038.259.882.882 0 01.441.728 2.309 2.309 0 01-.525 1.51 1.73 1.73 0 01-1.347.748zM85.742 55.661c0-2.592-3.7-7.152-11.376-7.152-10.032 0-16.752 7.248-16.752 18.192 0 10.08 7.1 15.6 16.128 15.6 8.88 0 13.728-5.712 13.728-13.584 0-3.312-1.872-5.232-4.176-5.232a15.909 15.909 0 00-7.392 1.968c-1.152.864-1.488 1.344-1.488 2.16a2.314 2.314 0 001.536 2.256 2.011 2.011 0 011.34 1.824 2.272 2.272 0 01-2.256 2.208c-1.728 0-4.176-2.736-4.176-8.4 0-5.136 1.824-6.96 3.312-6.96 1.3 0 2.064 1.152 2.448 2.592.192.672.528 1.008 1.536 1.008 2.164 0 7.588-3.888 7.588-6.48zm16.9 1.152c-7.536 0-13.248 5.424-13.248 13.1-.004 7.54 5.804 12.196 13.004 12.196 6.384 0 11.28-3.744 11.28-5.808 0-1.872-2.352-4.56-3.888-4.7-1.3 0-3.36 2.784-6.576 2.784-2.5 0-3.312-.912-3.312-1.824 0-2.064 13.3-1.1 13.3-7.056-.004-4.9-3.892-8.692-10.564-8.692zm2.16 7.68c0 .768-3.552 2.16-5.376 2.16a.781.781 0 01-.768-.72c0-1.344 2.16-2.736 4.368-2.736 1.1 0 1.772.576 1.772 1.296zm18.668-7.248c-2.16 0-9.168 2.592-9.168 4.944 0 2.064 2.016 1.968 2.016 11.424 0 1.632-.432 3.792-.432 5.328 0 2.064 4.32 3.7 8.448 3.7 2.5 0 3.936-1.632 3.936-4.272 0-4.7-1.1-8.064-1.1-12 0-1.056.48-1.584 1.2-1.584.96 0 1.392.864 1.392 2.3 0 .912.624 1.44 1.632 1.44 3.648 0 7.344-3.12 7.344-5.9 0-2.352-2.5-5.952-6-5.952-3.168 0-5.664 2.592-6.336 2.592-.724-.004-1.06-2.02-2.932-2.02zm15.6-7.056a5.5 5.5 0 005.712 5.472 5.537 5.537 0 005.76-5.472 5.616 5.616 0 00-5.76-5.568 5.574 5.574 0 00-5.712 5.568zm9.312 7.244c-4.08 0-9.072 2.16-9.072 4.7 0 2.064 1.248 3.744 1.248 7.3s-1.1 7.536-1.1 9.36c0 1.872 3.648 3.648 7.92 3.648 2.736 0 3.888-1.392 3.888-2.88 0-2.4-.96-5.52-.96-9.024 0-4.944 1.248-8.592 1.248-10.416-.004-1.772-1.252-2.688-3.172-2.688zm13.92-12c-3.936 0-9.216 2.928-9.216 5.424s1.584 7.728 1.584 14.736c0 5.712-.96 10.8-.96 14.16 0 1.872 1.056 2.928 3.168 2.928 5.52 0 8.832-2.88 8.832-4.8s-1.728-3.6-1.728-6.816c0-9.36 1.44-17.328 1.44-21.984 0-2.492-1.104-3.648-3.12-3.648zm14.112 0c-3.936 0-9.216 2.928-9.216 5.424s1.584 7.728 1.584 14.736c0 5.712-.96 10.8-.96 14.16 0 1.872 1.056 2.928 3.168 2.928 5.52 0 8.832-2.88 8.832-4.8s-1.728-3.6-1.728-6.816c0-9.36 1.44-17.328 1.44-21.984 0-2.492-1.104-3.648-3.12-3.648zm18.816 11.188c-6.192 0-10.752 2.16-11.856 4.608a6.114 6.114 0 00-.432 2.64c0 1.584.384 3.264 1.632 3.264 1.536 0 4.56-3.408 8.832-3.408 1.008 0 1.488.48 1.488 1.008 0 2.64-14.064 1.728-14.064 11.232 0 3.456 2.592 6.192 7.536 6.192 3.5 0 6.24-1.824 6.816-1.824.528 0 1.1 1.92 3.312 1.92 2.736 0 6.816-2.592 6.816-4.032 0-1.008-1.152-.96-1.152-4.272 0-1.92.816-4.032.816-9.216s-4.656-8.112-9.744-8.112zm-.816 14.784c.48 0 .672.48.672 1.1 0 1.248-2.544 3.552-3.84 3.552-.96 0-1.488-.432-1.488-1.344 0-1.244 2.88-3.308 4.656-3.308zm33.408-10.032c0-1.44-3.024-4.7-9.12-4.7s-9.792 2.88-9.792 7.1c0 7.344 9.408 7.44 9.408 10.128a1.262 1.262 0 01-1.2 1.248c-2.832 0-4.32-3.552-5.712-3.552-1.776 0-4.9 3.072-4.9 5.328 0 1.872 5.52 5.616 12.24 5.616 5.856 0 9.552-3.936 9.552-7.872 0-6.768-10.32-7.44-10.32-10.464a1.1 1.1 0 011.152-1.1c2.016 0 3.36 3.264 4.608 3.264 1.492-.004 4.084-3.268 4.084-4.996zm22.416 0c0-1.44-3.024-4.7-9.12-4.7s-9.792 2.88-9.792 7.1c0 7.344 9.408 7.44 9.408 10.128a1.262 1.262 0 01-1.2 1.248c-2.832 0-4.32-3.552-5.712-3.552-1.776 0-4.9 3.072-4.9 5.328 0 1.872 5.52 5.616 12.24 5.616 5.856 0 9.552-3.936 9.552-7.872 0-6.768-10.32-7.44-10.32-10.464a1.1 1.1 0 011.152-1.1c2.016 0 3.36 3.264 4.608 3.264 1.492-.004 4.084-3.268 4.084-4.996z" fill="#2f3937"/></g></svg>