<svg xmlns="http://www.w3.org/2000/svg" xmlns:xlink="http://www.w3.org/1999/xlink" width="266" height="59" viewBox="0 0 266 59"><defs><clipPath id="b"><rect width="266" height="59"/></clipPath></defs><g id="a" clip-path="url(#b)"><g transform="translate(-194 -190)"><path d="M-68.688-25.872c0-2.592-3.7-7.152-11.376-7.152-10.032,0-16.752,7.248-16.752,18.192,0,10.08,7.1,15.6,16.128,15.6,8.88,0,13.728-5.712,13.728-13.584,0-3.312-1.872-5.232-4.176-5.232a15.909,15.909,0,0,0-7.392,1.968c-1.152.864-1.488,1.344-1.488,2.16a2.314,2.314,0,0,0,1.536,2.256A2.011,2.011,0,0,1-77.136-9.84a2.272,2.272,0,0,1-2.256,2.208c-1.728,0-4.176-2.736-4.176-8.4,0-5.136,1.824-6.96,3.312-6.96,1.3,0,2.064,1.152,2.448,2.592.192.672.528,1.008,1.536,1.008C-74.112-19.392-68.688-23.28-68.688-25.872Zm16.9,1.152c-7.536,0-13.248,5.424-13.248,13.1C-65.04-4.08-59.232.576-52.032.576c6.384,0,11.28-3.744,11.28-5.808,0-1.872-2.352-4.56-3.888-4.7-1.3,0-3.36,2.784-6.576,2.784-2.5,0-3.312-.912-3.312-1.824,0-2.064,13.3-1.1,13.3-7.056C-41.232-20.928-45.12-24.72-51.792-24.72Zm2.16,7.68c0,.768-3.552,2.16-5.376,2.16a.781.781,0,0,1-.768-.72c0-1.344,2.16-2.736,4.368-2.736C-50.3-18.336-49.632-17.76-49.632-17.04Zm18.672-7.248c-2.16,0-9.168,2.592-9.168,4.944,0,2.064,2.016,1.968,2.016,11.424,0,1.632-.432,3.792-.432,5.328,0,2.064,4.32,3.7,8.448,3.7,2.5,0,3.936-1.632,3.936-4.272,0-4.7-1.1-8.064-1.1-12,0-1.056.48-1.584,1.2-1.584.96,0,1.392.864,1.392,2.3,0,.912.624,1.44,1.632,1.44,3.648,0,7.344-3.12,7.344-5.9,0-2.352-2.5-5.952-6-5.952-3.168,0-5.664,2.592-6.336,2.592C-28.752-22.272-29.088-24.288-30.96-24.288Zm15.6-7.056a5.5,5.5,0,0,0,5.712,5.472,5.537,5.537,0,0,0,5.76-5.472,5.616,5.616,0,0,0-5.76-5.568A5.574,5.574,0,0,0-15.36-31.344ZM-6.048-24.1c-4.08,0-9.072,2.16-9.072,4.7,0,2.064,1.248,3.744,1.248,7.3s-1.1,7.536-1.1,9.36c0,1.872,3.648,3.648,7.92,3.648,2.736,0,3.888-1.392,3.888-2.88,0-2.4-.96-5.52-.96-9.024,0-4.944,1.248-8.592,1.248-10.416C-2.88-23.184-4.128-24.1-6.048-24.1Zm13.92-12c-3.936,0-9.216,2.928-9.216,5.424S.24-22.944.24-15.936c0,5.712-.96,10.8-.96,14.16C-.72.1.336,1.152,2.448,1.152c5.52,0,8.832-2.88,8.832-4.8s-1.728-3.6-1.728-6.816c0-9.36,1.44-17.328,1.44-21.984C10.992-34.944,9.888-36.1,7.872-36.1Zm14.112,0c-3.936,0-9.216,2.928-9.216,5.424s1.584,7.728,1.584,14.736c0,5.712-.96,10.8-.96,14.16,0,1.872,1.056,2.928,3.168,2.928,5.52,0,8.832-2.88,8.832-4.8s-1.728-3.6-1.728-6.816c0-9.36,1.44-17.328,1.44-21.984C25.1-34.944,24-36.1,21.984-36.1ZM40.8-24.912c-6.192,0-10.752,2.16-11.856,4.608a6.114,6.114,0,0,0-.432,2.64c0,1.584.384,3.264,1.632,3.264,1.536,0,4.56-3.408,8.832-3.408,1.008,0,1.488.48,1.488,1.008,0,2.64-14.064,1.728-14.064,11.232,0,3.456,2.592,6.192,7.536,6.192,3.5,0,6.24-1.824,6.816-1.824.528,0,1.1,1.92,3.312,1.92C46.8.72,50.88-1.872,50.88-3.312c0-1.008-1.152-.96-1.152-4.272,0-1.92.816-4.032.816-9.216S45.888-24.912,40.8-24.912Zm-.816,14.784c.48,0,.672.48.672,1.1,0,1.248-2.544,3.552-3.84,3.552-.96,0-1.488-.432-1.488-1.344C35.328-8.064,38.208-10.128,39.984-10.128ZM73.392-20.16c0-1.44-3.024-4.7-9.12-4.7s-9.792,2.88-9.792,7.1c0,7.344,9.408,7.44,9.408,10.128a1.262,1.262,0,0,1-1.2,1.248c-2.832,0-4.32-3.552-5.712-3.552-1.776,0-4.9,3.072-4.9,5.328,0,1.872,5.52,5.616,12.24,5.616,5.856,0,9.552-3.936,9.552-7.872,0-6.768-10.32-7.44-10.32-10.464a1.1,1.1,0,0,1,1.152-1.1c2.016,0,3.36,3.264,4.608,3.264C70.8-15.168,73.392-18.432,73.392-20.16Zm22.416,0c0-1.44-3.024-4.7-9.12-4.7s-9.792,2.88-9.792,7.1c0,7.344,9.408,7.44,9.408,10.128a1.262,1.262,0,0,1-1.2,1.248c-2.832,0-4.32-3.552-5.712-3.552-1.776,0-4.9,3.072-4.9,5.328,0,1.872,5.52,5.616,12.24,5.616,5.856,0,9.552-3.936,9.552-7.872,0-6.768-10.32-7.44-10.32-10.464a1.1,1.1,0,0,1,1.152-1.1c2.016,0,3.36,3.264,4.608,3.264C93.216-15.168,95.808-18.432,95.808-20.16Z" transform="translate(354.896 236)" fill="#222c25"/><g transform="matrix(0.966, -0.259, 0.259, 0.966, 12061.671, -683.841)"><path d="M22.819,49.928a22.7,22.7,0,0,1-5.812-.759l-.013,0-.013,0-.046-.013A22.829,22.829,0,0,1,.756,21.268c.047-.176.1-.355.146-.529L5.684,2.893A3.9,3.9,0,0,1,10.463.134L28.314,4.917l.311.08.047.012.014,0h.006l.053.014a22.792,22.792,0,0,1,10.146,5.816l0,0,0,0a22.671,22.671,0,0,1,3.821,5l.036.064.006.011.006.011a22.727,22.727,0,0,1,2.068,5.02c0,.009.005.019.007.027l0,.007a22.793,22.793,0,0,1,0,12.2.017.017,0,0,0,0,.006l-.008.03a22.847,22.847,0,0,1-21.983,16.7h-.035ZM19.456,31.446a10.9,10.9,0,0,1,2.015.189c3.186.6,5.517,2.633,7.389,4.267,1.483,1.294,2.764,2.412,4.01,2.412a2.084,2.084,0,0,0,.456-.05c1.386-.313,3.393-2.137,5.115-4.647,1.392-2.029,2.777-4.855,2.491-6.7-.253-1.627-2.07-3.354-5.255-5A46.929,46.929,0,0,0,24.348,18.1a47.208,47.208,0,0,0-9.577-1.219c-3.5,0-6.07.742-7.866,2.27-.748.636-1.571,2.088-1.245,5.4.4,4.09,2.309,8.463,3.586,9.174a1.7,1.7,0,0,0,.846.2,9,9,0,0,0,2.974-.894c.275-.113.56-.23.855-.348A14.873,14.873,0,0,1,19.456,31.446Z" transform="translate(-11691.468 -2219.156)" fill="#222c25"/><g transform="matrix(0.966, 0.259, -0.259, 0.966, -11678.01, -2197.382)"><path d="M2.495,4.989A2.5,2.5,0,0,1,.179,1.564.994.994,0,1,0,1.564.179a2.495,2.495,0,1,1,.931,4.809Z" transform="translate(2.108 0.556)" fill="#222c25"/><path d="M-2.943-2.833A2.7,2.7,0,0,1-.637-4.409c1.616,0,5.323,1.576,5.323,1.576" transform="translate(2.943 4.409)" fill="none" stroke="#222c25" stroke-linecap="round" stroke-width="1.5"/></g><g transform="matrix(0.966, 0.259, -0.259, 0.966, -11664.486, -2193.759)"><path d="M2.474,4.99A2.5,2.5,0,0,1,0,2.824.994.994,0,1,0,.55,1L.474,1a2.494,2.494,0,1,1,2,3.986Z" transform="translate(0.553 0.555)" fill="#222c25"/><path d="M4.687-2.833A2.7,2.7,0,0,0,2.38-4.409c-1.616,0-5.323,1.576-5.323,1.576" transform="translate(2.943 4.409)" fill="none" stroke="#222c25" stroke-linecap="round" stroke-width="1.5"/></g></g></g></g></svg>