<?xml version="1.0" standalone="no"?>
<!DOCTYPE svg PUBLIC "-//W3C//DTD SVG 1.1//EN" "http://www.w3.org/Graphics/SVG/1.1/DTD/svg11.dtd">
<svg xmlns="http://www.w3.org/2000/svg">
<metadata>Halil İbrahim Çakıroğlu</metadata>
<defs>
<font id="gerillass" horiz-adv-x="1000" >
<font-face font-family="gerillass" font-weight="400" font-stretch="normal" units-per-em="1000" ascent="850" descent="-150" />
<missing-glyph horiz-adv-x="1000" />
<glyph glyph-name="arrow-down" unicode="&#xe800;" d="M599 668c18-17-10-285-31-429 77 107 112 184 121 188 11 5 103-1 106-55s-219-348-290-353-212 192-295 315c3 44 81 91 101 87 15-3 67-89 135-184-23 148-36 408-18 431 12 15 44 21 78 21 39 0 80-8 93-21z" horiz-adv-x="1000" />

<glyph glyph-name="arrow-left" unicode="&#xe801;" d="M816 257c-17-17-284 10-428 32 106-77 183-113 187-121 5-11-1-103-55-106s-348 219-353 290 192 212 315 295c44-4 92-81 87-101-2-15-89-67-184-135 149 22 408 36 431 17 15-11 22-43 22-77 0-39-9-81-22-94z" horiz-adv-x="1000" />

<glyph glyph-name="arrow-right" unicode="&#xe802;" d="M189 451c17 18 284-10 428-32-106 78-183 113-187 122-5 10 1 103 55 106s348-219 353-291-192-211-315-294c-44 3-92 80-87 101 2 15 89 67 184 135-149-23-408-36-431-18-15 12-22 44-22 78 0 39 9 80 22 93z" horiz-adv-x="1000" />

<glyph glyph-name="arrow-up" unicode="&#xe803;" d="M408 65c-18 18 10 285 32 429-78-106-113-183-121-187-11-6-104 1-106 55s218 347 290 352 212-192 295-314c-4-44-81-92-102-87-14 2-67 89-134 184 22-149 36-408 17-432-12-15-44-21-77-21-39 0-81 9-94 21z" horiz-adv-x="1000" />

<glyph glyph-name="checkbox-off" unicode="&#xe804;" d="M458-63c-144 0-250 15-284 40-19 15-38 58-54 126a1646 1646 0 0 0-31 467c7 77 23 129 44 151s71 40 141 52a1369 1369 0 0 0 227 18 1345 1345 0 0 0 225-18c70-12 117-30 138-52s36-71 45-142a1527 1527 0 0 0 10-229c-4-176-30-321-63-352-19-18-71-34-150-45a1864 1864 0 0 0-248-16z m43 800a1195 1195 0 0 1-198-16c-61-10-104-26-123-45s-32-65-39-132a1437 1437 0 0 1 28-408c14-59 30-96 47-109 30-22 122-35 248-35 141 0 311 18 347 53 29 27 51 154 55 307a1332 1332 0 0 1-8 200c-9 62-22 105-40 124s-60 35-120 46a1174 1174 0 0 1-197 15z" horiz-adv-x="1000" />

<glyph glyph-name="checkbox-on" unicode="&#xe805;" d="M458-63c-144 0-250 15-284 40-19 15-38 58-54 126a1646 1646 0 0 0-31 467c7 77 23 129 44 151s71 40 141 52a1369 1369 0 0 0 227 18 1345 1345 0 0 0 225-18c70-12 117-30 138-52s36-71 45-142a1527 1527 0 0 0 10-229c-4-176-30-321-63-352-19-18-71-34-150-45a1864 1864 0 0 0-248-16z m43 800a1195 1195 0 0 1-198-16c-61-10-104-26-123-45s-32-65-39-132a1437 1437 0 0 1 28-408c14-59 30-96 47-109 30-22 122-35 248-35 141 0 311 18 347 53 29 27 51 154 55 307a1332 1332 0 0 1-8 200c-9 62-22 105-40 124s-60 35-120 46a1174 1174 0 0 1-197 15z m-308-446c0 44 89 126 110 122 19-1 45-64 148-177 112 155 195 373 205 379s131-18 137-72-236-440-342-443-167 75-258 191z" horiz-adv-x="1000" />

<glyph glyph-name="chevron-down" unicode="&#xe806;" d="M158 440c2 44 94 122 114 118 19-2 124-161 223-277 117 150 193 286 203 292s130-23 135-77-251-392-323-400-265 224-352 344z" horiz-adv-x="1000" />

<glyph glyph-name="chevron-left" unicode="&#xe807;" d="M547 700c44-3 121-96 117-116-3-19-164-121-282-218 149-120 284-198 289-209s-26-129-79-133-388 258-394 330 228 261 349 346z" horiz-adv-x="1000" />

<glyph glyph-name="chevron-right" unicode="&#xe808;" d="M444 7c-45 2-123 93-119 114 2 19 161 123 278 223-151 117-287 192-293 203s23 130 77 134 393-251 400-322-224-265-343-352z" horiz-adv-x="1000" />

<glyph glyph-name="chevron-up" unicode="&#xe809;" d="M851 259c-3-44-97-119-118-115-19 3-118 166-213 285-122-146-203-279-213-285s-129 28-132 82 264 383 336 388 257-233 340-355z" horiz-adv-x="1000" />

<glyph glyph-name="close-circle" unicode="&#xe80a;" d="M323-73a495 495 0 0 0-168 112c-75 79-114 200-105 332a564 564 0 0 0 43 180 443 443 0 0 0 99 148 420 420 0 0 0 153 92 553 553 0 0 0 183 31c132 0 251-45 326-123a336 336 0 0 0 82-159 591 591 0 0 0 10-199 700 700 0 0 0-52-198 484 484 0 0 0-103-155 343 343 0 0 0-124-76 427 427 0 0 0-145-25 530 530 0 0 0-199 40z m45 804a362 362 0 0 1-132-79 382 382 0 0 1-85-127 485 485 0 0 1-36-155c-8-114 25-218 90-285a425 425 0 0 1 145-97 456 456 0 0 1 171-34 367 367 0 0 1 124 21 295 295 0 0 1 107 65 416 416 0 0 1 88 134 602 602 0 0 1 45 170c14 129-14 241-79 308a388 388 0 0 1-280 106 476 476 0 0 1-158-27z m281-633c-13 2-91 93-154 173-71-95-119-167-126-171s-85 19-87 55c-2 22 60 121 118 191-49 48-102 111-133 149 0 30 58 85 72 83 12-1 75-71 145-145 81 104 130 165 136 170s98-34 95-61c-2-18-83-111-146-182a1436 1436 0 0 0 157-188c-2-28-60-74-76-74a6 6 0 0 0-1 0z" horiz-adv-x="1000" />

<glyph glyph-name="close-rectangle" unicode="&#xe80b;" d="M458-63c-144 0-250 15-284 40-19 15-38 58-54 126a1646 1646 0 0 0-31 467c7 77 23 129 44 151s71 40 141 52a1369 1369 0 0 0 227 18 1345 1345 0 0 0 225-18c70-12 117-30 138-52s36-71 45-142a1527 1527 0 0 0 10-229c-4-176-30-321-63-352-19-18-71-34-150-45a1864 1864 0 0 0-248-16z m43 800a1195 1195 0 0 1-198-16c-61-10-104-26-123-45s-32-65-39-132a1437 1437 0 0 1 28-408c14-59 30-96 47-109 30-22 122-35 248-35 141 0 311 18 347 53 29 27 51 154 55 307a1332 1332 0 0 1-8 200c-9 62-22 105-40 124s-60 35-120 46a1174 1174 0 0 1-197 15z m148-639c-13 2-91 93-154 173-71-95-119-167-126-171s-85 19-87 55c-2 22 60 121 118 191-48 48-102 111-133 149 0 30 58 85 72 83 12-1 75-71 145-145 81 104 130 165 136 170s98-34 95-61c-2-18-83-111-146-182a1436 1436 0 0 0 157-188c-2-28-60-74-76-74a6 6 0 0 0-1 0z" horiz-adv-x="1000" />

<glyph glyph-name="close" unicode="&#xe80c;" d="M649 98c-13 2-91 93-154 173-71-95-119-167-126-171s-85 19-87 55c-2 22 60 121 118 191-48 48-102 111-133 149 0 30 58 85 72 83 12-1 75-71 145-145 81 104 130 165 136 170s98-34 95-61c-2-18-83-111-146-182a1436 1436 0 0 0 157-188c-2-28-60-74-76-74a6 6 0 0 0-1 0z" horiz-adv-x="1000" />

<glyph glyph-name="coffee-filled-circle" unicode="&#xe80d;" d="M192 699c167 162 501 167 662 0s104-549-63-711-474-116-635 51-132 498 36 660z m194-599a36 36 0 0 0-35 31l-38 284h378l-37-284a36 36 0 0 0-36-31z m18 159a98 98 0 1 1 98 98 98 98 0 0 1-98-99z m31 0a68 68 0 1 0 67-68 68 68 0 0 0-67 67z m245 187h-399a10 10 0 0 0-10 10v50a10 10 0 0 0 10 10h442a10 10 0 0 0 11-10v-50a10 10 0 0 0-11-10z m-362 101v51a26 26 0 0 0 28 25l309-29a36 36 0 0 0 32-36v-11z" horiz-adv-x="1000" />

<glyph glyph-name="coffee-filled" unicode="&#xe80e;" d="M320-49a56 56 0 0 0-55 49l-59 445h593l-59-445a56 56 0 0 0-56-49z m28 249a154 154 0 1 1 154 154 154 154 0 0 1-154-154z m48 0a106 106 0 1 0 106-106 106 106 0 0 0-105 106z m385 293h-626a16 16 0 0 0-16 16v79a16 16 0 0 0 16 16h694a16 16 0 0 0 16-16v-79a16 16 0 0 0-16-16z m-568 159v80a40 40 0 0 0 44 40l485-46a56 56 0 0 0 50-56v-18z" horiz-adv-x="1000" />

<glyph glyph-name="coffee-outline-circle" unicode="&#xe80f;" d="M192 699c167 162 501 167 662 0s104-549-63-711-474-116-635 51-132 498 36 660z m523-162h-17v29a38 38 0 0 1-35 39l-318 30a38 38 0 0 1-42-38v-60h-18a28 28 0 0 1-27-28v-53a28 28 0 0 1 27-28h10l43-320a38 38 0 0 1 38-33h248a38 38 0 0 1 38 33l43 320h10a28 28 0 0 1 27 28v53a28 28 0 0 1-27 28z m-379 60a6 6 0 0 0 6 5l318-30a6 6 0 0 0 5-6v-29h-329z m293-484a6 6 0 0 0-5-5h-248a6 6 0 0 0-6 5l-42 315h343z m80 348h-419v43h419z m-209-299a105 105 0 1 1-105 105 105 105 0 0 1 105-105z m0 177a72 72 0 1 0-72-72 72 72 0 0 0 72 72z" horiz-adv-x="1000" />

<glyph glyph-name="coffee-outline" unicode="&#xe810;" d="M817 623h-25v44a56 56 0 0 1-51 56l-470 45a57 57 0 0 1-62-56v-89h-26a40 40 0 0 1-41-40v-79a40 40 0 0 1 41-41h15l63-472a57 57 0 0 1 56-49h366a57 57 0 0 1 56 49l63 472h15a40 40 0 0 1 41 41v79a40 40 0 0 1-41 40z m-559 89a8 8 0 0 0 9 8l470-45a8 8 0 0 0 7-8v-44h-486z m433-715a8 8 0 0 0-8-7h-366a8 8 0 0 0-8 7l-62 466h506z m118 515h-618v63h618z m-309-442a155 155 0 1 1-155 155 155 155 0 0 1 155-155z m0 262a107 107 0 1 0-107-107 107 107 0 0 0 107 107z" horiz-adv-x="1000" />

<glyph glyph-name="dots" unicode="&#xe811;" d="M477 584a54 54 0 0 0 71 0 62 62 0 0 0-6-76 51 51 0 0 0-68 6 54 54 0 0 0 3 70z m0-200a54 54 0 0 0 71 0 62 62 0 0 0-6-76 51 51 0 0 0-68 6 54 54 0 0 0 3 70z m0-200a54 54 0 0 0 71 0 62 62 0 0 0-6-76 51 51 0 0 0-68 6 54 54 0 0 0 3 70z" horiz-adv-x="1000" />

<glyph glyph-name="empty-circle" unicode="&#xe812;" d="M192 699c167 162 501 167 662 0s104-549-63-711-474-116-635 51-132 498 36 660z" horiz-adv-x="1000" />

<glyph glyph-name="empty-rectangle" unicode="&#xe813;" d="M133 721c92 93 643 94 731 1s63-656-8-724-596-85-681-21-133 652-42 744z" horiz-adv-x="1000" />

<glyph glyph-name="face-error" unicode="&#xe814;" d="M624-101l-1 0a459 459 0 0 0-578 444c0 2 0 5 1 8l-1 372a78 78 0 0 0 79 78l372 0c3 0 6 0 9 0a460 460 0 0 0 321-131l0 0 0 0 1-1 0 0a460 460 0 0 0 120-451l-1-1 0-1a460 460 0 0 0-322-317z m-162 341h0a219 219 0 0 0 40 7 319 319 0 0 0 165-44c36-18 66-33 91-26a41 41 0 0 1 8 3c26 13 55 59 75 117 21 59 27 114 14 143-13 30-58 54-128 69a943 943 0 0 1-240 16 949 949 0 0 1-192-27c-68-18-114-46-141-85-11-16-20-48 4-111 29-77 89-152 117-159a34 34 0 0 1 18 0 181 181 0 0 1 53 33c4 4 9 7 14 11a299 299 0 0 0 102 53z m-75 185c-10 0-36-10-36-18s4-23 4-31-1-8-11-8-17 0-22 0-7-21-7-32 13-10 24-10 15 2 15-1a186 186 0 0 1-2-19c0-9 27-11 36-11s11 11 11 37c0 2 6 3 16 5 10 3 21 8 21 15 0 13-2 32-8 32s-20-7-29-7c0 0-2 35-2 40s-5 8-10 8z m275 0c-10 0-36-10-36-18s4-23 4-31-1-8-11-8-17 0-22 0-7-21-7-32 13-10 24-10 15 2 15-1a186 186 0 0 1-2-19c0-9 27-11 36-11s11 11 11 37c0 2 6 3 16 5 10 3 21 8 21 15 0 13-2 32-8 32s-20-7-29-7c0 0-2 35-2 40s-5 8-10 8z" horiz-adv-x="1000" />

<glyph glyph-name="face-happy" unicode="&#xe815;" d="M624-101l-1 0a459 459 0 0 0-578 444c0 2 0 5 1 8l-1 372a78 78 0 0 0 79 78l372 0c3 0 6 0 9 0a460 460 0 0 0 321-131l0 0 0 0 1-1 0 0a460 460 0 0 0 120-451l-1-1 0-1a460 460 0 0 0-322-317z m-162 341h0a219 219 0 0 0 40 7 319 319 0 0 0 165-44c36-18 66-33 91-26a41 41 0 0 1 8 3c26 13 55 59 75 117 21 59 27 114 14 143-13 30-58 54-128 69a943 943 0 0 1-240 16 949 949 0 0 1-192-27c-68-18-114-46-141-85-11-16-20-48 4-111 29-77 89-152 117-159a34 34 0 0 1 18 0 181 181 0 0 1 53 33c4 4 9 7 14 11a299 299 0 0 0 102 53z m-98 178a85 85 0 0 0 82-59 31 31 0 0 0-3-25 23 23 0 0 0-35 12 44 44 0 0 1-67 25c-8-6-13-16-21-24a46 46 0 0 0-26-18c-14-2-20 8-11 33a88 88 0 0 0 81 56z m361-89a37 37 0 0 0-19 20 48 48 0 0 1-43 28 42 42 0 0 1-43-29 21 21 0 1 0-42 5 80 80 0 0 0 81 65 88 88 0 0 0 88-65c3-15-12-28-22-24z" horiz-adv-x="1000" />

<glyph glyph-name="face-thinking" unicode="&#xe816;" d="M624-101l-1 0a459 459 0 0 0-578 444c0 2 0 5 1 8l-1 372a78 78 0 0 0 79 78l372 0c3 0 6 0 9 0a460 460 0 0 0 321-131l0 0 0 0 1-1 0 0a460 460 0 0 0 120-451l-1-1 0-1a460 460 0 0 0-322-317z m-162 341h0a219 219 0 0 0 40 7 319 319 0 0 0 165-44c36-18 66-33 91-26a41 41 0 0 1 8 3c26 13 55 59 75 117 21 59 27 114 14 143-13 30-58 54-128 69a943 943 0 0 1-240 16 949 949 0 0 1-192-27c-68-18-114-46-141-85-11-16-20-48 4-111 29-77 89-152 117-159a34 34 0 0 1 18 0 181 181 0 0 1 53 33c4 4 9 7 14 11a299 299 0 0 0 102 53z m-98 178a85 85 0 0 0 82-59 31 31 0 0 0-3-25 23 23 0 0 0-35 12 44 44 0 0 1-67 25c-8-6-13-16-21-24a46 46 0 0 0-26-18c-14-2-20 8-11 33a88 88 0 0 0 81 56z m362-89a37 37 0 0 0-19 20 48 48 0 0 1-42 28 42 42 0 0 1-44-29 21 21 0 1 0-42 5 80 80 0 0 0 81 65 88 88 0 0 0 88-65c4-15-11-28-22-24z m-312 46a33 33 0 0 0 36-34 36 36 0 0 0-36-41 38 38 0 0 0 0 75z m300 0a33 33 0 0 0 36-34 36 36 0 0 0-36-41 38 38 0 0 0 0 75z" horiz-adv-x="1000" />

<glyph glyph-name="face-ups" unicode="&#xe817;" d="M381-100a459 459 0 0 0-336 443c0 2 0 5 0 8v372a79 79 0 0 0 58 76 80 80 0 0 0 21 2h371c4 0 7 0 10 0a459 459 0 0 0 321-131 1 1 0 0 0 0 0l0 0 1-1 0 0a459 459 0 0 0 119-451c0 0 0-1 0-1l0-1a459 459 0 0 0-322-317l-1 0 0 0a458 458 0 0 0-116-16h-3a457 457 0 0 0-123 17z m106 625a949 949 0 0 1-192-27c-68-18-114-46-141-85-11-16-20-48 4-111 29-77 89-152 117-159a34 34 0 0 1 18 0 181 181 0 0 1 53 33c4 4 9 7 14 11a299 299 0 0 0 101 53 223 223 0 0 0 40 7 319 319 0 0 0 166-45c36-17 66-32 91-26a43 43 0 0 1 8 4c25 13 55 59 75 117 21 59 26 114 14 143-14 30-58 54-128 69a863 863 0 0 1-179 17c-20 0-40 0-61-1z m113-162a38 38 0 1 0 38-38 38 38 0 0 0-38 38z m-250 0a38 38 0 1 0 38-38 38 38 0 0 0-38 38z" horiz-adv-x="1000" />

<glyph glyph-name="facebook-circle" unicode="&#xe818;" d="M192 699c167 162 501 167 662 0s104-549-63-711-474-116-635 51-132 498 36 660z m291-624h-145a113 113 0 0 0-113 113v325a113 113 0 0 0 113 112h325a113 113 0 0 0 112-112v-325a113 113 0 0 0-112-113h-81v211h66l9 83h-75v41a91 91 0 0 0 1 14 28 28 0 0 0 4 10 16 16 0 0 0 10 7 71 71 0 0 0 18 2h42v83h-67a108 108 0 0 1-82-27 115 115 0 0 1-25-80v-50h-50v-83h50v-211z" horiz-adv-x="1000" />

<glyph glyph-name="facebook" unicode="&#xe819;" d="M473-75h-285a113 113 0 0 0-113 113v625a113 113 0 0 0 113 112h625a113 113 0 0 0 112-112v-625a113 113 0 0 0-112-113h-186v326h102l14 128h-116v64a141 141 0 0 0 1 22 44 44 0 0 0 6 16 25 25 0 0 0 16 10 110 110 0 0 0 28 3h64v128h-102c-59 0-102-14-128-42a178 178 0 0 1-39-124v-77h-76v-128h76v-326z" horiz-adv-x="1000" />

<glyph glyph-name="github-circle" unicode="&#xe81a;" d="M192 699c167 162 501 167 662 0s104-549-63-711-474-116-635 51-132 498 36 660z m561-203a291 291 0 0 1-106 106 286 286 0 0 1-147 40 286 286 0 0 1-147-40 291 291 0 0 1-106-106 286 286 0 0 1-40-147 284 284 0 0 1 56-172 287 287 0 0 1 144-106 17 17 0 0 1 16 3 15 15 0 0 1 5 11q0 1-1 21t0 34l-8-2a112 112 0 0 0-22-1 161 161 0 0 0-26 3 59 59 0 0 0-26 11 48 48 0 0 0-16 23l-4 9a95 95 0 0 1-12 20 46 46 0 0 1-17 14l-2 2a28 28 0 0 0-5 5 21 21 0 0 0-4 5q-1 3 2 4a25 25 0 0 0 11 2l8-1a56 56 0 0 0 18-9 62 62 0 0 0 19-20 67 67 0 0 1 21-24 45 45 0 0 1 25-8 108 108 0 0 1 22 2 76 76 0 0 1 17 6 62 62 0 0 0 19 39 261 261 0 0 0-39 7 156 156 0 0 0-36 15 103 103 0 0 0-31 25 123 123 0 0 0-20 40 190 190 0 0 0-8 57 111 111 0 0 0 30 79 103 103 0 0 0 3 77 53 53 0 0 0 33-5 229 229 0 0 0 32-14q10-6 16-11a275 275 0 0 0 146 0l15 10a205 205 0 0 0 35 16 50 50 0 0 0 31 5 101 101 0 0 0 3-78 111 111 0 0 0 30-79 193 193 0 0 0-8-57 118 118 0 0 0-20-40 107 107 0 0 0-31-25 156 156 0 0 0-36-15 261 261 0 0 0-39-7 68 68 0 0 0 20-54v-81a15 15 0 0 1 4-11 17 17 0 0 1 15-3 287 287 0 0 1 145 106 285 285 0 0 1 56 172 287 287 0 0 1-40 147z" horiz-adv-x="1000" />

<glyph glyph-name="github" unicode="&#xe81b;" d="M869 560a424 424 0 0 1-155 155 417 417 0 0 1-214 57 417 417 0 0 1-214-57 424 424 0 0 1-155-155 417 417 0 0 1-57-214 414 414 0 0 1 81-251 417 417 0 0 1 210-154 25 25 0 0 1 23 4 22 22 0 0 1 7 17q0 1-1 30t0 49l-13-2a163 163 0 0 0-30-2 235 235 0 0 0-39 4 86 86 0 0 0-37 16 70 70 0 0 0-25 35l-5 12a139 139 0 0 1-18 29 67 67 0 0 1-24 21l-4 2a41 41 0 0 0-7 7 30 30 0 0 0-5 8q-1 4 3 6a36 36 0 0 0 16 3l11-2a81 81 0 0 0 28-13 90 90 0 0 0 27-29 98 98 0 0 1 30-35 65 65 0 0 1 37-12 158 158 0 0 1 31 3 110 110 0 0 1 25 9 90 90 0 0 0 27 57 380 380 0 0 0-56 10 226 226 0 0 0-53 21 149 149 0 0 0-44 38 179 179 0 0 0-29 58 277 277 0 0 0-12 83 162 162 0 0 0 44 114 149 149 0 0 0 4 113 78 78 0 0 0 48-7 334 334 0 0 0 46-21q15-9 24-15a401 401 0 0 0 213 0l21 13a299 299 0 0 0 51 24 73 73 0 0 0 45 6 148 148 0 0 0 4-113 162 162 0 0 0 44-114 280 280 0 0 0-11-84 172 172 0 0 0-30-58 155 155 0 0 0-45-37 227 227 0 0 0-52-21 380 380 0 0 0-57-10 99 99 0 0 0 29-79v-117a22 22 0 0 1 7-17 24 24 0 0 1 22-4 417 417 0 0 1 210 154 414 414 0 0 1 81 251 417 417 0 0 1-57 214z" horiz-adv-x="1000" />

<glyph glyph-name="hamburger" unicode="&#xe81c;" d="M795 588c14-13 0-92-24-103 0 0-500-11-521-5s-30 88-16 108 548 13 561 0z m0-200c14-13 0-92-24-103 0 0-500-11-521-5s-30 88-16 108 548 13 561 0z m0-200c14-13 0-92-24-103 0 0-500-11-521-5s-30 88-16 108 548 13 561 0z" horiz-adv-x="1000" />

<glyph glyph-name="instagram-circle" unicode="&#xe81d;" d="M192 699c167 162 501 167 662 0s104-549-63-711-474-116-635 51-132 498 36 660z m585-233a205 205 0 0 1-14 68 144 144 0 0 1-82 82 206 206 0 0 1-68 13c-30 1-39 2-115 2s-86-1-116-2a205 205 0 0 1-68-13 137 137 0 0 1-50-33 138 138 0 0 1-32-49 206 206 0 0 1-13-68c-2-30-2-40-2-116s0-86 2-116a205 205 0 0 1 13-68 144 144 0 0 1 82-82 206 206 0 0 1 68-13c30-1 39-1 115-1s86 0 116 1a205 205 0 0 1 68 13 144 144 0 0 1 82 82 206 206 0 0 1 13 68c2 30 2 40 2 116s0 86-1 116z m-51-229a154 154 0 0 0-10-52 93 93 0 0 0-53-54 154 154 0 0 0-52-9c-30-2-38-2-113-2s-84 0-114 2a154 154 0 0 0-52 9 86 86 0 0 0-32 21 87 87 0 0 0-21 32 154 154 0 0 0-9 52c-2 30-2 39-2 114s0 84 2 113a154 154 0 0 0 9 52 85 85 0 0 0 21 32 87 87 0 0 0 32 21 154 154 0 0 0 52 10c30 1 39 2 114 2s84-1 113-2a154 154 0 0 0 52-10 86 86 0 0 0 33-21 87 87 0 0 0 20-32 154 154 0 0 0 10-52c1-30 2-38 2-113s-1-84-2-113z m0 0m-228 257a144 144 0 1 1 144-144 144 144 0 0 1-144 144z m0-237a94 94 0 1 0 93 93 94 94 0 0 0-93-93z m0 0m183 243a34 34 0 1 0-33 33 34 34 0 0 0 33-33z m0 0" horiz-adv-x="1000" />

<glyph glyph-name="instagram" unicode="&#xe81e;" d="M914 523a306 306 0 0 1-19 102 215 215 0 0 1-123 122 307 307 0 0 1-101 20c-45 2-60 2-173 2s-129 0-173-2a307 307 0 0 1-102-20 205 205 0 0 1-74-48 207 207 0 0 1-49-74 307 307 0 0 1-19-102c-2-45-3-59-3-173s1-128 3-173a306 306 0 0 1 19-102 215 215 0 0 1 123-122 307 307 0 0 1 102-20c44-2 59-2 173-2s128 0 172 2a306 306 0 0 1 102 20 215 215 0 0 1 123 122 308 308 0 0 1 19 102c2 45 3 59 3 173s0 128-3 173z m-75-343a230 230 0 0 0-14-77 139 139 0 0 0-80-80 231 231 0 0 0-78-15c-44-2-57-2-169-2s-126 0-170 2a230 230 0 0 0-78 15 129 129 0 0 0-48 31 130 130 0 0 0-31 48 231 231 0 0 0-14 78c-2 44-3 58-3 170s1 125 3 169a230 230 0 0 0 14 78 128 128 0 0 0 32 48 130 130 0 0 0 48 31 231 231 0 0 0 78 15c44 2 57 2 169 2s125 0 169-2a230 230 0 0 0 78-15 129 129 0 0 0 48-31 130 130 0 0 0 32-48 231 231 0 0 0 14-78c2-44 3-57 3-169s-1-125-3-170z m0 0m-341 385a216 216 0 1 1 215-215 216 216 0 0 1-215 215z m0-355a140 140 0 1 0 139 140 140 140 0 0 0-139-140z m0 0m274 364a50 50 0 1 0-50 50 50 50 0 0 0 50-50z m0 0" horiz-adv-x="1000" />

<glyph glyph-name="linkedin-circle" unicode="&#xe81f;" d="M192 699c167 162 501 167 662 0s104-549-63-711-474-116-635 51-132 498 36 660z m308-78a271 271 0 1 1 271-271 271 271 0 0 1-271 271z m-79-410h-66v199h66z m-33 226h0a34 34 0 1 0 1 69 34 34 0 1 0-1-69z m271-226h-66v107c0 26-9 45-33 45a36 36 0 0 1-34-25 45 45 0 0 1-2-16v-111h-66s1 180 0 199h66v-28a66 66 0 0 0 59 33c44 0 76-29 76-90z m0 0" horiz-adv-x="1000" />

<glyph glyph-name="linkedin-naked" unicode="&#xe820;" d="M214 707a82 82 0 1 1-2-164h1a82 82 0 1 1 1 164z m0 0m-80-243h158v-474h-158z m0 0m560 11c-85 0-143-80-143-80v69h-157v-474h157v265a108 108 0 0 0 6 38 86 86 0 0 0 80 58c58 0 80-44 80-107v-254h158v272c0 145-78 213-181 213z m0 0" horiz-adv-x="1000" />

<glyph glyph-name="linkedin" unicode="&#xe821;" d="M500 776a426 426 0 1 1 426-426 426 426 0 0 1-426 426z m-124-644h-103v312h103z m-52 355h0a54 54 0 1 0 1 107 54 54 0 1 0-1-107z m426-355h-103v167c0 42-16 71-53 71a57 57 0 0 1-53-38 71 71 0 0 1-4-26v-174h-103s1 283 0 312h103v-44a103 103 0 0 0 94 51c68 0 119-44 119-140z m0 0" horiz-adv-x="1000" />

<glyph glyph-name="minus" unicode="&#xe822;" d="M795 398c14-13 0-92-24-103 0 0-500-11-521-5s-30 88-16 108 548 12 561 0z" horiz-adv-x="1000" />

<glyph glyph-name="open-collective-circle" unicode="&#xe823;" d="M192 699c167 162 501 167 662 0s104-549-63-711-474-116-635 51-132 498 36 660z m495-349a190 190 0 0 0-30-102l76-76a294 294 0 0 1 59 177 285 285 0 0 1-60 176l-75-75a181 181 0 0 0 30-100z m-187-187a187 187 0 0 0 0 374 183 183 0 0 0 102-30l74 75a294 294 0 0 1-176 59 291 291 0 0 1 0-581 285 285 0 0 1 176 60l-76 76a155 155 0 0 0-100-33z" horiz-adv-x="1000" />

<glyph glyph-name="open-collective" unicode="&#xe824;" d="M773 350a277 277 0 0 0-44-148l111-111a428 428 0 0 1 86 257 416 416 0 0 1-88 257l-109-109a264 264 0 0 0 44-146z m-273-273a273 273 0 0 0 0 546 266 266 0 0 0 148-44l109 109a428 428 0 0 1-257 86 424 424 0 0 1 0-848 416 416 0 0 1 257 89l-112 111a226 226 0 0 0-145-49z" horiz-adv-x="1000" />

<glyph glyph-name="patreon-circle" unicode="&#xe825;" d="M192 699c167 162 501 167 662 0s104-549-63-711-474-116-635 51-132 498 36 660z m392-99a188 188 0 1 1 187-188 188 188 0 0 1-187 188m-334-500h92v500h-92z" horiz-adv-x="1000" />

<glyph glyph-name="patreon" unicode="&#xe826;" d="M600 653a228 228 0 1 1 227-227 228 228 0 0 1-227 227m-406-606h112v606h-112z" horiz-adv-x="1000" />

<glyph glyph-name="plus" unicode="&#xe827;" d="M440 75c-8 6-5 103 3 214-100-1-185-1-193 1-21 7-30 88-16 108 5 8 104 11 217 12 10 116 22 220 28 226 14 12 91-8 100-32 0 0-4-90-9-195 116-2 220-6 226-11 13-13-1-92-24-103 0 0-98-2-209-4-6-105-12-199-15-207-5-12-35-18-63-18a85 85 0 0 0-45 9z" horiz-adv-x="1000" />

<glyph glyph-name="radio-btn-off" unicode="&#xe828;" d="M522-113a530 530 0 0 0-199 40 495 495 0 0 0-168 112c-75 79-114 200-105 332a564 564 0 0 0 43 180 444 444 0 0 0 99 148 421 421 0 0 0 153 92 554 554 0 0 0 183 31c132 0 251-45 326-123a336 336 0 0 0 82-159 591 591 0 0 0 10-199 700 700 0 0 0-52-197 484 484 0 0 0-103-156 343 343 0 0 0-124-76 428 428 0 0 0-145-25z m4 871a476 476 0 0 1-158-27 362 362 0 0 1-132-79 381 381 0 0 1-85-127 485 485 0 0 1-36-155c-8-114 25-218 90-285a426 426 0 0 1 145-97 456 456 0 0 1 171-34 368 368 0 0 1 124 21 295 295 0 0 1 107 65 416 416 0 0 1 88 134 602 602 0 0 1 45 170c14 129-14 241-79 308a388 388 0 0 1-280 106z" horiz-adv-x="1000" />

<glyph glyph-name="radio-btn-on" unicode="&#xe829;" d="M522-113a530 530 0 0 0-199 40 495 495 0 0 0-168 112c-75 79-114 200-105 332a564 564 0 0 0 43 180 444 444 0 0 0 99 148 421 421 0 0 0 153 92 554 554 0 0 0 183 31c132 0 251-45 326-123a336 336 0 0 0 82-159 591 591 0 0 0 10-199 700 700 0 0 0-52-197 484 484 0 0 0-103-156 343 343 0 0 0-124-76 428 428 0 0 0-145-25z m4 871a476 476 0 0 1-158-27 362 362 0 0 1-132-79 381 381 0 0 1-85-127 485 485 0 0 1-36-155c-8-114 25-218 90-285a426 426 0 0 1 145-97 456 456 0 0 1 171-34 368 368 0 0 1 124 21 295 295 0 0 1 107 65 416 416 0 0 1 88 134 602 602 0 0 1 45 170c14 129-14 241-79 308a388 388 0 0 1-280 106z m-199-201c96 93 289 97 382 0s60-317-36-411-274-67-367 30-76 288 21 381z" horiz-adv-x="1000" />

<glyph glyph-name="slack-circle" unicode="&#xe82a;" d="M192 699c167 162 501 167 662 0s104-549-63-711-474-116-635 51-132 498 36 660z m196-442l25-76c-37-12-62-20-64-20a42 42 0 0 0-38 28 41 41 0 0 0 26 51z m181 60l26-77c-34-11-70-23-105-34l-25 76z m181 4a40 40 0 0 0-28-38s-20-7-50-17l-26 77 51 17a41 41 0 0 0 51-26 39 39 0 0 0 2-13z m-422 113l26-76c-37-12-63-20-64-20a42 42 0 0 0-38 28 41 41 0 0 0 26 51z m181 61l26-77c-33-12-70-24-104-35l-26 77z m154-35s-20-7-51-17l-26 77 51 17a41 41 0 1 0 26-77z m-51-17c-21-7-48-16-77-25l-26 76 77 26z m-26 77l-77-26-17 53a41 41 0 0 0 77 26z m86-254c-22-7-48-16-77-26l-26 77 77 26z m-26 77l-77-26-34 101c29 9 56 18 77 25z m18-180a41 41 0 0 0-52 25l-17 52c29 10 55 19 77 26l17-52a40 40 0 0 0-25-51z m-233 220c-28-9-55-18-77-25l-26 76 77 26z m-26 77l-77-26-17 52a41 41 0 0 0 77 26z m85-254c-28-9-54-18-77-25l-25 76 77 25z m-25 76l-77-25-34 101c22 7 49 16 77 25z m17-180a41 41 0 0 0-51 25l-18 54c23 7 49 16 77 25l18-53a40 40 0 0 0-26-51z" horiz-adv-x="1000" />

<glyph glyph-name="slack" unicode="&#xe82b;" d="M300 185l46-136c-66-21-111-34-114-34a74 74 0 0 0-66 49 72 72 0 0 0 45 91z m322 107l46-137c-60-20-124-41-185-61l-46 136z m321 7a71 71 0 0 0-48-68s-36-12-91-30l-45 136 90 30a72 72 0 0 0 91-45 69 69 0 0 0 3-23z m-748 200l46-135c-66-21-111-35-114-35a74 74 0 0 0-67 49 72 72 0 0 0 46 91z m322 107l45-136c-59-20-124-42-185-61l-45 136z m272-61s-35-12-90-30l-46 137 90 30a72 72 0 1 0 46-137z m-90-30c-38-12-85-28-137-45l-45 136 136 46z m-46 137l-136-46-31 93a72 72 0 0 0 136 46z m152-451c-39-13-86-29-137-46l-46 137 137 45z m-46 136l-137-45-60 178c52 17 99 33 137 45z m31-319a73 73 0 0 0-91 45l-31 92c51 17 98 33 137 46l31-93a72 72 0 0 0-46-90z m-413 391c-50-17-97-32-136-45l-46 135 137 46z m-45 136l-137-46-31 93a72 72 0 0 0 137 45z m151-451c-50-16-97-32-137-45l-46 136 137 45z m-46 136l-137-45-59 179c39 13 86 28 136 45z m31-320a73 73 0 0 0-91 45l-31 94c40 13 87 29 137 45l31-93a72 72 0 0 0-46-91z" horiz-adv-x="1000" />

<glyph glyph-name="twitter-circle" unicode="&#xe82c;" d="M192 699c167 162 501 167 662 0s104-549-63-711-474-116-635 51-132 498 36 660z m596-175a230 230 0 0 0-64-18 110 110 0 0 1 49 61 220 220 0 0 0-70-26 110 110 0 0 1-191-76 114 114 0 0 1 3-25 312 312 0 0 0-227 116 110 110 0 0 1 33-148 109 109 0 0 0-49 14v-1a111 111 0 0 1 88-109 110 110 0 0 0-29-3 98 98 0 0 0-21 2 111 111 0 0 1 103-77 222 222 0 0 0-137-47 207 207 0 0 0-26 1 310 310 0 0 1 169-49 312 312 0 0 1 314 313c0 5 0 10 0 15a220 220 0 0 1 55 57z" horiz-adv-x="1000" />

<glyph glyph-name="twitter" unicode="&#xe82d;" d="M938 625a369 369 0 0 0-102-28 176 176 0 0 1 77 97 353 353 0 0 0-112-42 177 177 0 0 1-306-121 182 182 0 0 1 5-41 501 501 0 0 0-365 185 177 177 0 0 1 54-236 175 175 0 0 0-80 22v-2a178 178 0 0 1 142-174 177 177 0 0 0-46-6 156 156 0 0 0-34 3 179 179 0 0 1 166-123 355 355 0 0 0-220-75 331 331 0 0 0-42 2 498 498 0 0 1 271-79c326 0 504 269 504 503 0 8-1 15-1 23a353 353 0 0 1 89 92z" horiz-adv-x="1000" />

<glyph glyph-name="medium-circle" unicode="&#xe82e;" d="M192 699c167 162 501 167 662 0s104-549-63-711-474-116-635 51-132 498 36 660z m522-188l43 41v8h-147l-105-260-119 260h-154v-8l49-60a21 21 0 0 0 7-17v-235a27 27 0 0 0-7-23l-56-68v-9h158v9l-55 68a28 28 0 0 0-8 23v203l139-303h16l119 303v-241c0-6 0-8-4-12l-43-41v-9h209v9l-42 40a12 12 0 0 0-5 12v298a12 12 0 0 0 5 12z" horiz-adv-x="1000" />

<glyph glyph-name="medium" unicode="&#xe82f;" d="M823 596l62 58v13h-213l-151-377-173 377h-223v-13l72-86a30 30 0 0 0 9-25v-340a39 39 0 0 0-10-33l-81-98v-13h229v13l-81 98a40 40 0 0 0-11 33v294l202-438h23l173 438v-349c0-9 0-11-6-17l-62-60v-13h302v13l-60 58a18 18 0 0 0-7 18v431a18 18 0 0 0 6 18z" horiz-adv-x="1000" />
</font>
</defs>
</svg>
